# Blender 4.0.2
# www.blender.org
mtllib cube.mtl
o Cube
v 1.000000 1.000000 -1.064990
v 1.000000 -1.000000 -1.064990
v 1.000000 -0.248918 0.935010
v 1.000000 -1.000000 0.935010
v -1.000000 -0.032103 -1.064990
v -1.000000 -1.000000 -1.064990
v -1.000000 1.000000 0.935010
v -1.000000 -1.000000 0.935010
vn 0.0540 0.9971 0.0540
vn -0.0000 -0.0000 1.0000
vn -1.0000 -0.0000 -0.0000
vn -0.0000 -1.0000 -0.0000
vn 1.0000 -0.0000 -0.0000
vn -0.0000 -0.0000 -1.0000
vt 0.625000 0.500000
vt 0.830952 0.538572
vt 0.875000 0.750000
vt 0.468885 0.750000
vt 0.375000 0.750000
vt 0.625000 1.000000
vt 0.375000 1.000000
vt 0.375000 0.000000
vt 0.625000 0.000000
vt 0.495987 0.250000
vt 0.375000 0.250000
vt 0.125000 0.500000
vt 0.375000 0.500000
vt 0.125000 0.750000
s 0
usemtl Material
f 1/1/1 5/2/1 7/3/1 3/4/1
f 4/5/2 3/4/2 7/6/2 8/7/2
f 8/8/3 7/9/3 5/10/3 6/11/3
f 6/12/4 2/13/4 4/5/4 8/14/4
f 2/13/5 1/1/5 3/4/5 4/5/5
f 6/11/6 5/10/6 1/1/6 2/13/6
