{
  "accessors": [
    {
      "bufferView": 1,
      "componentType": 5126,
      "count": 65532,
      "max": [
        1.9733779430389404,
        -2.63492488861084,
        4.182332992553711
      ],
      "min": [
        -6.839980125427246,
        -12.718362808227539,
        -4.305078983306885
      ],
      "type": "VEC3"
    },
    {
      "bufferView": 1,
      "byteOffset": 786384,
      "componentType": 5126,
      "count": 65532,
      "max": [
        0.999422550201416,
        0.9999915957450867,
        0.9999939203262329
      ],
      "min": [
        -0.9999816417694092,
        -0.9999857544898987,
        -0.9999865293502808
      ],
      "type": "VEC3"
    },
    {
      "bufferView": 2,
      "componentType": 5126,
      "count": 65532,
      "max": [
        0.9921568632125854,
        0.9921568632125854,
        0.929411768913269,
        1.0
      ],
      "min": [
        0.0,
        0.0,
        0.0,
        1.0
      ],
      "type": "VEC4"
    },
    {
      "bufferView": 0,
      "componentType": 5125,
      "count": 332652,
      "type": "SCALAR"
    },
    {
      "bufferView": 1,
      "byteOffset": 1572768,
      "componentType": 5126,
      "count": 65532,
      "max": [
        1.6781009435653687,
        -1.8963229656219482,
        4.452867031097412
      ],
      "min": [
        -1.9918500185012817,
        -11.605134963989258,
        -5.134820938110352
      ],
      "type": "VEC3"
    },
    {
      "bufferView": 1,
      "byteOffset": 2359152,
      "componentType": 5126,
      "count": 65532,
      "max": [
        0.9943263530731201,
        0.9999967217445374,
        0.9999056458473206
      ],
      "min": [
        -0.9999914169311523,
        -0.9998854398727417,
        -0.9999877214431763
      ],
      "type": "VEC3"
    },
    {
      "bufferView": 2,
      "byteOffset": 1048512,
      "componentType": 5126,
      "count": 65532,
      "max": [
        0.9921568632125854,
        0.9764705896377563,
        0.929411768913269,
        1.0
      ],
      "min": [
        0.0,
        0.0,
        0.0,
        1.0
      ],
      "type": "VEC4"
    },
    {
      "bufferView": 0,
      "byteOffset": 1330608,
      "componentType": 5125,
      "count": 331344,
      "type": "SCALAR"
    },
    {
      "bufferView": 1,
      "byteOffset": 3145536,
      "componentType": 5126,
      "count": 65532,
      "max": [
        1.8403489589691162,
        -0.9199709892272949,
        4.871445178985596
      ],
      "min": [
        -2.8822429180145264,
        -12.491189956665039,
        -5.742194175720215
      ],
      "type": "VEC3"
    },
    {
      "bufferView": 1,
      "byteOffset": 3931920,
      "componentType": 5126,
      "count": 65532,
      "max": [
        0.9977608919143677,
        0.9997435212135315,
        0.9999056458473206
      ],
      "min": [
        -0.9999995231628418,
        -0.9998774528503418,
        -0.9999055862426758
      ],
      "type": "VEC3"
    },
    {
      "bufferView": 2,
      "byteOffset": 2097024,
      "componentType": 5126,
      "count": 65532,
      "max": [
        0.9921568632125854,
        0.9843137264251709,
        0.9490196108818054,
        1.0
      ],
      "min": [
        0.0,
        0.0,
        0.0,
        1.0
      ],
      "type": "VEC4"
    },
    {
      "bufferView": 0,
      "byteOffset": 2655984,
      "componentType": 5125,
      "count": 314664,
      "type": "SCALAR"
    },
    {
      "bufferView": 1,
      "byteOffset": 4718304,
      "componentType": 5126,
      "count": 65532,
      "max": [
        1.938362956047058,
        -0.8155350089073181,
        5.07658576965332
      ],
      "min": [
        -6.658905029296875,
        -12.661520004272461,
        -5.182188987731934
      ],
      "type": "VEC3"
    },
    {
      "bufferView": 1,
      "byteOffset": 5504688,
      "componentType": 5126,
      "count": 65532,
      "max": [
        0.999422550201416,
        0.999846875667572,
        0.9999704957008362
      ],
      "min": [
        -0.9999985098838806,
        -0.9999839663505554,
        -0.9997281432151794
      ],
      "type": "VEC3"
    },
    {
      "bufferView": 2,
      "byteOffset": 3145536,
      "componentType": 5126,
      "count": 65532,
      "max": [
        0.9921568632125854,
        0.9921568632125854,
        0.9372549057006836,
        1.0
      ],
      "min": [
        0.0,
        0.0,
        0.0,
        1.0
      ],
      "type": "VEC4"
    },
    {
      "bufferView": 0,
      "byteOffset": 3914640,
      "componentType": 5125,
      "count": 260634,
      "type": "SCALAR"
    },
    {
      "bufferView": 1,
      "byteOffset": 6291072,
      "componentType": 5126,
      "count": 733,
      "max": [
        0.12779800593852997,
        -1.0411169528961182,
        -1.1890480518341064
      ],
      "min": [
        -0.9141960144042969,
        -4.243008136749268,
        -5.214634895324707
      ],
      "type": "VEC3"
    },
    {
      "bufferView": 1,
      "byteOffset": 6299868,
      "componentType": 5126,
      "count": 733,
      "max": [
        0.8415370583534241,
        0.9832574129104614,
        0.9988414645195007
      ],
      "min": [
        -0.9994782209396362,
        -0.9928492307662964,
        -0.9964640140533447
      ],
      "type": "VEC3"
    },
    {
      "bufferView": 2,
      "byteOffset": 4194048,
      "componentType": 5126,
      "count": 733,
      "max": [
        0.9411764740943909,
        0.929411768913269,
        0.8588235378265381,
        1.0
      ],
      "min": [
        0.0,
        0.0,
        0.0,
        1.0
      ],
      "type": "VEC4"
    },
    {
      "bufferView": 0,
      "byteOffset": 4957176,
      "componentType": 5125,
      "count": 1113,
      "type": "SCALAR"
    }
  ],
  "asset": {
    "extras": {
      "author": "Austin Beaulier (https://sketchfab.com/Austin.Beaulier)",
      "license": "SKETCHFAB Standard (https://sketchfab.com/licenses)",
      "source": "https://sketchfab.com/3d-models/metal-t-rex-dd8354bc62e846b69d73c23bfb099963",
      "title": "Metal T Rex"
    },
    "generator": "Sketchfab-15.49.0",
    "version": "2.0"
  },
  "bufferViews": [
    {
      "buffer": 0,
      "byteLength": 4961628,
      "name": "floatBufferViews",
      "target": 34963
    },
    {
      "buffer": 0,
      "byteLength": 6308664,
      "byteOffset": 4961628,
      "byteStride": 12,
      "name": "floatBufferViews",
      "target": 34962
    },
    {
      "buffer": 0,
      "byteLength": 4205776,
      "byteOffset": 11270292,
      "byteStride": 16,
      "name": "floatBufferViews",
      "target": 34962
    }
  ],
  "buffers": [
    {
      "byteLength": 15476068,
      "uri": "scene.bin"
    }
  ],
  "materials": [
    {
      "doubleSided": true,
      "name": "material_0",
      "pbrMetallicRoughness": {
        "metallicFactor": 0.0
      }
    }
  ],
  "meshes": [
    {
      "name": "Object_0",
      "primitives": [
        {
          "attributes": {
            "COLOR_0": 2,
            "NORMAL": 1,
            "POSITION": 0
          },
          "indices": 3,
          "material": 0,
          "mode": 4
        }
      ]
    },
    {
      "name": "Object_1",
      "primitives": [
        {
          "attributes": {
            "COLOR_0": 6,
            "NORMAL": 5,
            "POSITION": 4
          },
          "indices": 7,
          "material": 0,
          "mode": 4
        }
      ]
    },
    {
      "name": "Object_2",
      "primitives": [
        {
          "attributes": {
            "COLOR_0": 10,
            "NORMAL": 9,
            "POSITION": 8
          },
          "indices": 11,
          "material": 0,
          "mode": 4
        }
      ]
    },
    {
      "name": "Object_3",
      "primitives": [
        {
          "attributes": {
            "COLOR_0": 14,
            "NORMAL": 13,
            "POSITION": 12
          },
          "indices": 15,
          "material": 0,
          "mode": 4
        }
      ]
    },
    {
      "name": "Object_4",
      "primitives": [
        {
          "attributes": {
            "COLOR_0": 18,
            "NORMAL": 17,
            "POSITION": 16
          },
          "indices": 19,
          "material": 0,
          "mode": 4
        }
      ]
    }
  ],
  "nodes": [
    {
      "children": [
        1
      ],
      "matrix": [
        0.08179838955402374,
        -0.9636718034744262,
        -0.2542550265789034,
        0.0,
        -0.055787764489650726,
        -0.2591371536254885,
        0.9642280340194701,
        0.0,
        -0.9950863122940063,
        -0.06468797475099562,
        -0.07495810091495515,
        0.0,
        0.0,
        0.0,
        0.0,
        1.0
      ],
      "name": "Sketchfab_model"
    },
    {
      "children": [
        2,
        3,
        4,
        5,
        6
      ],
      "name": "METALREXh.obj.cleaner.materialmerger.gles"
    },
    {
      "mesh": 0,
      "name": "Object_2"
    },
    {
      "mesh": 1,
      "name": "Object_3"
    },
    {
      "mesh": 2,
      "name": "Object_4"
    },
    {
      "mesh": 3,
      "name": "Object_5"
    },
    {
      "mesh": 4,
      "name": "Object_6"
    }
  ],
  "scene": 0,
  "scenes": [
    {
      "name": "Sketchfab_Scene",
      "nodes": [
        0
      ]
    }
  ]
}
